<?xml version="1.0" encoding="UTF-8"?>
<svg id="Layer_1" xmlns="http://www.w3.org/2000/svg" version="1.1" viewBox="0 0 56.3 62">
  <!-- Generator: Adobe Illustrator 29.8.1, SVG Export Plug-In . SVG Version: 2.1.1 Build 2)  -->
  <defs>
    <style>
      .st0, .st1 {
        fill: none;
        stroke: #333;
        stroke-linecap: round;
        stroke-width: 2px;
      }

      .st1 {
        stroke-linejoin: round;
      }

      .st2 {
        isolation: isolate;
      }

      .st3 {
        fill: #333;
      }
    </style>
  </defs>
  <g class="st2">
    <path class="st3" d="M31.3,7.8h2.8v9.8h4.8v2.3h-7.6V7.8Z"/>
  </g>
  <g class="st2">
    <path class="st3" d="M10.3,24.9v3.4h3.3v2.7h-3.3v3.5h-2.8v-3.5h-3.3v-2.7h3.3v-3.4h2.8Z"/>
  </g>
  <g class="st2">
    <path class="st3" d="M31.3,41.9c.8-.1,2-.3,3.7-.3s2.9.3,3.7,1c.8.6,1.3,1.6,1.3,2.8s-.4,2.2-1.1,2.9c-.9.9-2.3,1.3-3.9,1.3s-.7,0-.9,0v4.3h-2.7v-12ZM34,47.4c.2,0,.5,0,.9,0,1.5,0,2.4-.7,2.4-2s-.8-1.8-2.1-1.8-.9,0-1.1.1v3.6Z"/>
  </g>
  <path class="st1" d="M1.1,48.7c5.5,7.4,14.3,12.3,24.2,12.3,16.6,0,30-13.4,30-30S41.8,1,25.3,1,6.5,5.9,1,13.4h0v35.4h0Z"/>
  <g>
    <g>
      <line class="st0" x1="15.3" y1="21.6" x2="19.6" y2="17.3"/>
      <polygon class="st3" points="22.1 21.8 24.7 12.2 15 14.8 22.1 21.8"/>
    </g>
    <line class="st0" x1="18.5" y1="18.4" x2="25.9" y2="10.9"/>
  </g>
  <g>
    <g>
      <line class="st0" x1="22.8" y1="50.2" x2="18.5" y2="45.9"/>
      <polygon class="st3" points="23.1 43.4 13.4 40.8 16 50.5 23.1 43.4"/>
    </g>
    <line class="st0" x1="19.6" y1="47" x2="12.2" y2="39.6"/>
  </g>
</svg>